# xmcd
#
# Track frame offsets:
#	150
#	11307
#	26393
#	50278
#	59942
#	73631
#	99672
#	109366
#	132631
#	153153
#	168616
#
# Disc length: 2638 seconds
#
# Revision: 1
# Processed by: cddbd v1.5.1PL2 Copyright (c) Steve Scherf et al.
# Submitted via: audiograbber 1.83.01
#
DISCID=970a4c0b
DTITLE=Alaska - 1994-09-10 - Brewsters - Glen Burnie MD
DYEAR=1994
DGENRE=Progressive Rock
TTITLE0=Alaska - Mississippi Queen
TTITLE1=Alaska - The Royal Road
TTITLE2=Alaska - Hunger
TTITLE3=Alaska - Do You Feel Like We Do
TTITLE4=Alaska - Throw The Horse Over The Fence Some Hay (Oncet)
TTITLE5=Alaska - Cliffs Of Dover
TTITLE6=Alaska - Ralph's Other Ball
TTITLE7=Alaska - Carry On My Wayward Son
TTITLE8=Alaska - Locomotive Breath
TTITLE9=Alaska - Seasonal Changes
TTITLE10=Alaska - Hocus Pocus
EXTD=
EXTT0=
EXTT1=
EXTT2=
EXTT3=
EXTT4=
EXTT5=
EXTT6=
EXTT7=
EXTT8=
EXTT9=
EXTT10=
PLAYORDER=
